<svg xmlns="http://www.w3.org/2000/svg" xmlns:xlink="http://www.w3.org/1999/xlink" viewBox="0 0 500 500" preserveAspectRatio="xMidYMid meet"><defs><clipPath id="__lottie_element_852"><rect width="500" height="500" x="0" y="0"></rect></clipPath></defs><g clip-path="url(#__lottie_element_852)"><g style="display: block;" transform="matrix(1,0,0,1,250,250)" opacity="1"><g opacity="1" transform="matrix(1,0,0,1,0,0)"><path stroke-linecap="butt" stroke-linejoin="miter" fill-opacity="0" stroke-miterlimit="4" stroke="rgb(0,47,105)" stroke-opacity="1" stroke-width="31" d=" M-156,77.5 C-156,77.5 -60.75,11.5 -60.75,11.5 C-60.75,11.5 -51.5,8.5 -51.5,8.5 C-51.5,8.5 53.5,8.5 53.5,8.5 C53.5,8.5 60.5,4.5 60.5,4.5 C60.5,4.5 146.5,-70 146.5,-70"></path></g></g><g style="display: block;" transform="matrix(0.9455185532569885,-0.32556816935539246,0.32556816935539246,0.9455185532569885,406.8218688964844,163.9191131591797)" opacity="1"><g opacity="1" transform="matrix(1,0,0,1,0,0)"><path stroke-linecap="butt" stroke-linejoin="miter" fill-opacity="0" stroke-miterlimit="4" stroke="rgb(0,47,105)" stroke-opacity="1" stroke-width="31" d=" M-101.57523345947266,-57.781105041503906 C-101.57523345947266,-57.781105041503906 -9.25,4.5 -9.25,4.5 C-9.25,4.5 -5.5,15 -5.5,15 C-5.5,15 -18.70039176940918,116.87500762939453 -18.70039176940918,116.87500762939453"></path></g></g></g></svg>