<svg xmlns="http://www.w3.org/2000/svg" xmlns:xlink="http://www.w3.org/1999/xlink" viewBox="0 0 500 500" preserveAspectRatio="xMidYMid meet"><defs><clipPath id="__lottie_element_841"><rect width="500" height="500" x="0" y="0"></rect></clipPath><g id="__lottie_element_845"><g style="display: block;" transform="matrix(1,0,0,1,119.80899047851562,159.62799072265625)" opacity="1"><g opacity="1" transform="matrix(1,0,0,1,122.38200378417969,98.18099975585938)"><path fill="rgb(0,47,105)" fill-opacity="1" d=" M-114.24299621582031,58.87900161743164 C-114.24299621582031,58.87900161743164 -126.13200378417969,20.246000289916992 -126.13200378417969,20.246000289916992 C-126.13200378417969,20.246000289916992 49.296417236328125,-38.47456359863281 49.296417236328125,-38.47456359863281 C49.296417236328125,-38.47456359863281 61.18468475341797,0.158436119556427 61.18468475341797,0.158436119556427 C61.18468475341797,0.158436119556427 -114.24299621582031,58.87900161743164 -114.24299621582031,58.87900161743164z"></path></g></g></g><mask id="__lottie_element_845_1" mask-type="alpha"><use xlink:href="#__lottie_element_845"></use></mask></defs><g clip-path="url(#__lottie_element_841)"><g mask="url(#__lottie_element_845_1)" style="display: block;"><g transform="matrix(1,0,0,1,119.80899047851562,159.62799072265625)" opacity="1"><g opacity="1" transform="matrix(1,0,0,1,122.38200378417969,98.18099975585938)"><path fill="rgb(0,47,105)" fill-opacity="1" d=" M-112.24299621582031,53.87900161743164 C-112.24299621582031,53.87900161743164 -122.13200378417969,24.246000289916992 -122.13200378417969,24.246000289916992 C-122.13200378417969,24.246000289916992 112.24299621582031,-53.87900161743164 112.24299621582031,-53.87900161743164 C112.24299621582031,-53.87900161743164 122.13200378417969,-24.246000289916992 122.13200378417969,-24.246000289916992 C122.13200378417969,-24.246000289916992 -112.24299621582031,53.87900161743164 -112.24299621582031,53.87900161743164z"></path></g></g></g><g style="display: block;" transform="matrix(1,0,0,1,297.6889953613281,231.2794647216797)" opacity="0.9189090908930421"><g opacity="1" transform="matrix(1,0,0,1,0,0)"><path stroke-linecap="butt" stroke-linejoin="miter" fill-opacity="0" stroke-miterlimit="4" stroke="rgb(0,47,105)" stroke-opacity="1" stroke-width="31" d=" M-101.09373474121094,1.344022512435913 C-101.09373474121094,1.344022512435913 -9.25,4.5 -9.25,4.5 C-9.25,4.5 -5.5,15 -5.5,15 C-5.5,15 -73.94810485839844,73.77059173583984 -73.94810485839844,73.77059173583984"></path></g></g></g></svg>